<svg xmlns="http://www.w3.org/2000/svg" viewBox="0 0 1600 900" width="1600" height="900" role="img" aria-hidden="true">
  <defs>
    <radialGradient id="glow6" cx="30%" cy="20%" r="75%">
      <stop offset="0%" stop-color="#26170d"/>
      <stop offset="100%" stop-color="#0a0a0a"/>
    </radialGradient>
    <radialGradient id="accentGlow6" cx="75%" cy="15%" r="50%">
      <stop offset="0%" stop-color="#ff7a3d" stop-opacity="0.22"/>
      <stop offset="100%" stop-color="#ff7a3d" stop-opacity="0"/>
    </radialGradient>
  </defs>
  <rect width="1600" height="900" fill="url(#glow6)"/>
  <rect width="1600" height="900" fill="url(#accentGlow6)"/>
  <circle cx="1309" cy="114" r="1.1" fill="#ff7a3d" opacity="0.15"/>
<circle cx="457" cy="142" r="2.5" fill="#ff7a3d" opacity="0.26"/>
<circle cx="1116" cy="89" r="2.2" fill="#ff7a3d" opacity="0.09"/>
<circle cx="191" cy="223" r="1.5" fill="#ff7a3d" opacity="0.24"/>
<circle cx="1149" cy="203" r="2.4" fill="#ff7a3d" opacity="0.27"/>
<circle cx="859" cy="225" r="1.9" fill="#ff7a3d" opacity="0.16"/>
<circle cx="13" cy="163" r="2.4" fill="#ff7a3d" opacity="0.17"/>
<circle cx="318" cy="220" r="2.9" fill="#ff7a3d" opacity="0.17"/>
<circle cx="189" cy="389" r="1.2" fill="#ff7a3d" opacity="0.31"/>
<circle cx="1236" cy="270" r="2.6" fill="#ff7a3d" opacity="0.28"/>
<circle cx="1098" cy="127" r="2.9" fill="#ff7a3d" opacity="0.18"/>
<circle cx="1130" cy="300" r="2.7" fill="#ff7a3d" opacity="0.25"/>
<circle cx="740" cy="196" r="2.4" fill="#ff7a3d" opacity="0.09"/>
<circle cx="466" cy="296" r="3.0" fill="#ff7a3d" opacity="0.31"/>
<circle cx="206" cy="389" r="1.6" fill="#ff7a3d" opacity="0.25"/>
<circle cx="747" cy="166" r="1.7" fill="#ff7a3d" opacity="0.14"/>
<circle cx="546" cy="73" r="2.2" fill="#ff7a3d" opacity="0.13"/>
<circle cx="1493" cy="250" r="1.3" fill="#ff7a3d" opacity="0.18"/>
<circle cx="1310" cy="224" r="2.4" fill="#ff7a3d" opacity="0.31"/>
<circle cx="1589" cy="57" r="1.5" fill="#ff7a3d" opacity="0.09"/>
<circle cx="646" cy="410" r="1.5" fill="#ff7a3d" opacity="0.14"/>
<circle cx="1161" cy="322" r="1.4" fill="#ff7a3d" opacity="0.21"/>
<circle cx="1316" cy="469" r="1.3" fill="#ff7a3d" opacity="0.12"/>
<circle cx="1525" cy="269" r="2.5" fill="#ff7a3d" opacity="0.20"/>
<circle cx="1195" cy="408" r="1.7" fill="#ff7a3d" opacity="0.35"/>
<circle cx="283" cy="521" r="2.0" fill="#ff7a3d" opacity="0.28"/>
<circle cx="224" cy="156" r="2.3" fill="#ff7a3d" opacity="0.29"/>
<circle cx="864" cy="65" r="1.8" fill="#ff7a3d" opacity="0.24"/>
<circle cx="958" cy="257" r="2.9" fill="#ff7a3d" opacity="0.31"/>
<circle cx="23" cy="117" r="2.4" fill="#ff7a3d" opacity="0.22"/>
<circle cx="546" cy="348" r="1.2" fill="#ff7a3d" opacity="0.20"/>
<circle cx="929" cy="3" r="2.9" fill="#ff7a3d" opacity="0.32"/>
<circle cx="539" cy="512" r="2.5" fill="#ff7a3d" opacity="0.22"/>
<circle cx="217" cy="305" r="2.7" fill="#ff7a3d" opacity="0.22"/>
<circle cx="407" cy="156" r="1.7" fill="#ff7a3d" opacity="0.12"/>
<circle cx="1594" cy="0" r="2.2" fill="#ff7a3d" opacity="0.21"/>
<circle cx="229" cy="371" r="2.8" fill="#ff7a3d" opacity="0.30"/>
<circle cx="629" cy="245" r="1.1" fill="#ff7a3d" opacity="0.32"/>
<circle cx="161" cy="87" r="2.5" fill="#ff7a3d" opacity="0.30"/>
<circle cx="1557" cy="128" r="1.3" fill="#ff7a3d" opacity="0.21"/>
<circle cx="1125" cy="169" r="1.5" fill="#ff7a3d" opacity="0.32"/>
<circle cx="866" cy="216" r="2.9" fill="#ff7a3d" opacity="0.28"/>
<circle cx="1412" cy="205" r="2.4" fill="#ff7a3d" opacity="0.19"/>
<circle cx="1375" cy="382" r="1.9" fill="#ff7a3d" opacity="0.22"/>
<circle cx="247" cy="253" r="1.4" fill="#ff7a3d" opacity="0.17"/>
<circle cx="1204" cy="235" r="2.2" fill="#ff7a3d" opacity="0.08"/>
<circle cx="1449" cy="60" r="1.5" fill="#ff7a3d" opacity="0.32"/>
<circle cx="676" cy="72" r="2.0" fill="#ff7a3d" opacity="0.16"/>
<circle cx="994" cy="219" r="2.1" fill="#ff7a3d" opacity="0.28"/>
<circle cx="1169" cy="484" r="1.5" fill="#ff7a3d" opacity="0.21"/>
<circle cx="833" cy="194" r="1.2" fill="#ff7a3d" opacity="0.26"/>
<circle cx="725" cy="433" r="1.8" fill="#ff7a3d" opacity="0.31"/>
<circle cx="110" cy="100" r="1.1" fill="#ff7a3d" opacity="0.28"/>
<circle cx="223" cy="254" r="1.4" fill="#ff7a3d" opacity="0.22"/>
<circle cx="287" cy="432" r="1.4" fill="#ff7a3d" opacity="0.20"/>
<circle cx="154" cy="453" r="2.6" fill="#ff7a3d" opacity="0.31"/>
<circle cx="200" cy="51" r="2.3" fill="#ff7a3d" opacity="0.23"/>
<circle cx="30" cy="95" r="2.9" fill="#ff7a3d" opacity="0.31"/>
<circle cx="340" cy="416" r="2.0" fill="#ff7a3d" opacity="0.14"/>
<circle cx="821" cy="60" r="1.3" fill="#ff7a3d" opacity="0.08"/>
  <rect x="0" y="621" width="53" height="207" fill="#000000" opacity="0.35"/>
<rect x="61" y="699" width="77" height="129" fill="#000000" opacity="0.35"/>
<rect x="146" y="639" width="42" height="189" fill="#000000" opacity="0.35"/>
<rect x="194" y="678" width="87" height="150" fill="#000000" opacity="0.35"/>
<rect x="284" y="722" width="47" height="106" fill="#000000" opacity="0.35"/>
<rect x="341" y="657" width="84" height="171" fill="#000000" opacity="0.35"/>
<rect x="433" y="608" width="63" height="220" fill="#000000" opacity="0.35"/>
<rect x="505" y="645" width="90" height="183" fill="#000000" opacity="0.35"/>
<rect x="598" y="690" width="46" height="138" fill="#000000" opacity="0.35"/>
<rect x="650" y="638" width="50" height="190" fill="#000000" opacity="0.35"/>
<rect x="703" y="715" width="52" height="113" fill="#000000" opacity="0.35"/>
<rect x="762" y="643" width="48" height="185" fill="#000000" opacity="0.35"/>
<rect x="817" y="660" width="85" height="168" fill="#000000" opacity="0.35"/>
<rect x="909" y="748" width="61" height="80" fill="#000000" opacity="0.35"/>
<rect x="972" y="608" width="40" height="220" fill="#000000" opacity="0.35"/>
<rect x="1021" y="693" width="78" height="135" fill="#000000" opacity="0.35"/>
<rect x="1106" y="693" width="76" height="135" fill="#000000" opacity="0.35"/>
<rect x="1184" y="712" width="66" height="116" fill="#000000" opacity="0.35"/>
<rect x="1258" y="661" width="78" height="167" fill="#000000" opacity="0.35"/>
<rect x="1345" y="722" width="53" height="106" fill="#000000" opacity="0.35"/>
<rect x="1407" y="672" width="60" height="156" fill="#000000" opacity="0.35"/>
<rect x="1474" y="634" width="90" height="194" fill="#000000" opacity="0.35"/>
<rect x="1570" y="745" width="61" height="83" fill="#000000" opacity="0.35"/>
  <rect x="0" y="756" width="52" height="144" fill="#000000" opacity="0.55"/>
<rect x="58" y="594" width="82" height="306" fill="#000000" opacity="0.55"/>
<rect x="146" y="671" width="87" height="229" fill="#000000" opacity="0.55"/>
<rect x="235" y="743" width="81" height="157" fill="#000000" opacity="0.55"/>
<rect x="324" y="611" width="89" height="289" fill="#000000" opacity="0.55"/>
<rect x="418" y="660" width="84" height="240" fill="#000000" opacity="0.55"/>
<rect x="510" y="778" width="74" height="122" fill="#000000" opacity="0.55"/>
<rect x="589" y="736" width="86" height="164" fill="#000000" opacity="0.55"/>
<rect x="682" y="694" width="67" height="206" fill="#000000" opacity="0.55"/>
<rect x="757" y="565" width="84" height="335" fill="#000000" opacity="0.55"/>
<rect x="845" y="581" width="51" height="319" fill="#000000" opacity="0.55"/>
<rect x="903" y="767" width="63" height="133" fill="#000000" opacity="0.55"/>
<rect x="971" y="755" width="89" height="145" fill="#000000" opacity="0.55"/>
<rect x="1065" y="661" width="49" height="239" fill="#000000" opacity="0.55"/>
<rect x="1120" y="628" width="49" height="272" fill="#000000" opacity="0.55"/>
<rect x="1179" y="598" width="56" height="302" fill="#000000" opacity="0.55"/>
<rect x="1239" y="652" width="80" height="248" fill="#000000" opacity="0.55"/>
<rect x="1327" y="759" width="86" height="141" fill="#000000" opacity="0.55"/>
<rect x="1423" y="752" width="40" height="148" fill="#000000" opacity="0.55"/>
<rect x="1472" y="687" width="83" height="213" fill="#000000" opacity="0.55"/>
<rect x="1560" y="578" width="67" height="322" fill="#000000" opacity="0.55"/>
  <rect width="1600" height="900" fill="none"/>
</svg>