<svg xmlns="http://www.w3.org/2000/svg" viewBox="0 0 1600 900" width="1600" height="900" role="img" aria-hidden="true">
  <defs>
    <radialGradient id="glow1" cx="30%" cy="20%" r="75%">
      <stop offset="0%" stop-color="#2a1608"/>
      <stop offset="100%" stop-color="#0d0d0d"/>
    </radialGradient>
    <radialGradient id="accentGlow1" cx="75%" cy="15%" r="50%">
      <stop offset="0%" stop-color="#ff5c1a" stop-opacity="0.22"/>
      <stop offset="100%" stop-color="#ff5c1a" stop-opacity="0"/>
    </radialGradient>
  </defs>
  <rect width="1600" height="900" fill="url(#glow1)"/>
  <rect width="1600" height="900" fill="url(#accentGlow1)"/>
  <circle cx="663" cy="154" r="1.8" fill="#ff5c1a" opacity="0.09"/>
<circle cx="1097" cy="96" r="1.7" fill="#ff5c1a" opacity="0.10"/>
<circle cx="1039" cy="219" r="1.1" fill="#ff5c1a" opacity="0.20"/>
<circle cx="143" cy="246" r="1.2" fill="#ff5c1a" opacity="0.19"/>
<circle cx="1158" cy="126" r="2.9" fill="#ff5c1a" opacity="0.25"/>
<circle cx="1193" cy="63" r="2.2" fill="#ff5c1a" opacity="0.19"/>
<circle cx="452" cy="47" r="2.1" fill="#ff5c1a" opacity="0.12"/>
<circle cx="858" cy="147" r="2.1" fill="#ff5c1a" opacity="0.23"/>
<circle cx="1147" cy="185" r="1.2" fill="#ff5c1a" opacity="0.23"/>
<circle cx="384" cy="381" r="1.2" fill="#ff5c1a" opacity="0.27"/>
<circle cx="1155" cy="61" r="2.2" fill="#ff5c1a" opacity="0.21"/>
<circle cx="1088" cy="437" r="2.6" fill="#ff5c1a" opacity="0.21"/>
<circle cx="928" cy="370" r="1.6" fill="#ff5c1a" opacity="0.29"/>
<circle cx="1431" cy="249" r="1.2" fill="#ff5c1a" opacity="0.16"/>
<circle cx="1013" cy="351" r="2.5" fill="#ff5c1a" opacity="0.16"/>
<circle cx="149" cy="120" r="2.0" fill="#ff5c1a" opacity="0.12"/>
<circle cx="700" cy="155" r="2.9" fill="#ff5c1a" opacity="0.19"/>
<circle cx="1368" cy="79" r="2.5" fill="#ff5c1a" opacity="0.23"/>
<circle cx="642" cy="348" r="2.4" fill="#ff5c1a" opacity="0.24"/>
<circle cx="1187" cy="467" r="1.1" fill="#ff5c1a" opacity="0.11"/>
<circle cx="552" cy="485" r="2.4" fill="#ff5c1a" opacity="0.10"/>
<circle cx="1497" cy="317" r="2.3" fill="#ff5c1a" opacity="0.35"/>
<circle cx="912" cy="291" r="2.4" fill="#ff5c1a" opacity="0.32"/>
<circle cx="710" cy="23" r="2.9" fill="#ff5c1a" opacity="0.18"/>
<circle cx="1251" cy="119" r="2.0" fill="#ff5c1a" opacity="0.14"/>
<circle cx="588" cy="132" r="2.5" fill="#ff5c1a" opacity="0.19"/>
<circle cx="1016" cy="82" r="1.3" fill="#ff5c1a" opacity="0.19"/>
<circle cx="569" cy="140" r="2.6" fill="#ff5c1a" opacity="0.31"/>
<circle cx="570" cy="425" r="3.0" fill="#ff5c1a" opacity="0.26"/>
<circle cx="779" cy="236" r="1.3" fill="#ff5c1a" opacity="0.13"/>
<circle cx="475" cy="238" r="1.0" fill="#ff5c1a" opacity="0.30"/>
<circle cx="373" cy="269" r="1.6" fill="#ff5c1a" opacity="0.12"/>
<circle cx="1094" cy="378" r="2.2" fill="#ff5c1a" opacity="0.17"/>
<circle cx="257" cy="527" r="2.9" fill="#ff5c1a" opacity="0.26"/>
<circle cx="1515" cy="55" r="1.9" fill="#ff5c1a" opacity="0.32"/>
<circle cx="1393" cy="401" r="1.8" fill="#ff5c1a" opacity="0.19"/>
<circle cx="986" cy="410" r="1.1" fill="#ff5c1a" opacity="0.10"/>
<circle cx="427" cy="451" r="1.3" fill="#ff5c1a" opacity="0.17"/>
<circle cx="107" cy="104" r="1.0" fill="#ff5c1a" opacity="0.12"/>
<circle cx="207" cy="372" r="2.2" fill="#ff5c1a" opacity="0.10"/>
<circle cx="425" cy="385" r="1.3" fill="#ff5c1a" opacity="0.15"/>
<circle cx="711" cy="372" r="1.9" fill="#ff5c1a" opacity="0.11"/>
<circle cx="999" cy="477" r="2.0" fill="#ff5c1a" opacity="0.16"/>
<circle cx="295" cy="104" r="2.5" fill="#ff5c1a" opacity="0.28"/>
<circle cx="980" cy="165" r="2.0" fill="#ff5c1a" opacity="0.14"/>
<circle cx="1081" cy="370" r="1.3" fill="#ff5c1a" opacity="0.23"/>
<circle cx="55" cy="540" r="1.6" fill="#ff5c1a" opacity="0.25"/>
<circle cx="186" cy="267" r="2.0" fill="#ff5c1a" opacity="0.33"/>
<circle cx="728" cy="228" r="2.1" fill="#ff5c1a" opacity="0.29"/>
<circle cx="675" cy="228" r="2.2" fill="#ff5c1a" opacity="0.29"/>
<circle cx="1553" cy="199" r="2.6" fill="#ff5c1a" opacity="0.30"/>
<circle cx="1515" cy="232" r="1.4" fill="#ff5c1a" opacity="0.21"/>
<circle cx="1497" cy="29" r="3.0" fill="#ff5c1a" opacity="0.29"/>
<circle cx="967" cy="265" r="1.4" fill="#ff5c1a" opacity="0.24"/>
<circle cx="705" cy="457" r="2.6" fill="#ff5c1a" opacity="0.28"/>
<circle cx="715" cy="373" r="1.2" fill="#ff5c1a" opacity="0.11"/>
<circle cx="962" cy="201" r="1.7" fill="#ff5c1a" opacity="0.21"/>
<circle cx="1249" cy="1" r="2.0" fill="#ff5c1a" opacity="0.26"/>
<circle cx="1317" cy="86" r="2.7" fill="#ff5c1a" opacity="0.11"/>
<circle cx="795" cy="204" r="2.0" fill="#ff5c1a" opacity="0.13"/>
  <rect x="0" y="694" width="44" height="134" fill="#000000" opacity="0.35"/>
<rect x="48" y="688" width="59" height="140" fill="#000000" opacity="0.35"/>
<rect x="116" y="739" width="41" height="89" fill="#000000" opacity="0.35"/>
<rect x="160" y="618" width="60" height="210" fill="#000000" opacity="0.35"/>
<rect x="227" y="615" width="43" height="213" fill="#000000" opacity="0.35"/>
<rect x="279" y="748" width="63" height="80" fill="#000000" opacity="0.35"/>
<rect x="352" y="716" width="88" height="112" fill="#000000" opacity="0.35"/>
<rect x="450" y="624" width="40" height="204" fill="#000000" opacity="0.35"/>
<rect x="495" y="697" width="58" height="131" fill="#000000" opacity="0.35"/>
<rect x="562" y="663" width="45" height="165" fill="#000000" opacity="0.35"/>
<rect x="610" y="614" width="42" height="214" fill="#000000" opacity="0.35"/>
<rect x="655" y="708" width="86" height="120" fill="#000000" opacity="0.35"/>
<rect x="750" y="638" width="41" height="190" fill="#000000" opacity="0.35"/>
<rect x="793" y="658" width="42" height="170" fill="#000000" opacity="0.35"/>
<rect x="840" y="629" width="50" height="199" fill="#000000" opacity="0.35"/>
<rect x="896" y="622" width="86" height="206" fill="#000000" opacity="0.35"/>
<rect x="986" y="672" width="74" height="156" fill="#000000" opacity="0.35"/>
<rect x="1063" y="740" width="89" height="88" fill="#000000" opacity="0.35"/>
<rect x="1158" y="675" width="54" height="153" fill="#000000" opacity="0.35"/>
<rect x="1219" y="686" width="45" height="142" fill="#000000" opacity="0.35"/>
<rect x="1272" y="639" width="58" height="189" fill="#000000" opacity="0.35"/>
<rect x="1333" y="626" width="90" height="202" fill="#000000" opacity="0.35"/>
<rect x="1425" y="634" width="51" height="194" fill="#000000" opacity="0.35"/>
<rect x="1480" y="725" width="84" height="103" fill="#000000" opacity="0.35"/>
<rect x="1566" y="682" width="48" height="146" fill="#000000" opacity="0.35"/>
  <rect x="0" y="706" width="56" height="194" fill="#000000" opacity="0.55"/>
<rect x="60" y="721" width="81" height="179" fill="#000000" opacity="0.55"/>
<rect x="145" y="616" width="54" height="284" fill="#000000" opacity="0.55"/>
<rect x="203" y="762" width="48" height="138" fill="#000000" opacity="0.55"/>
<rect x="261" y="590" width="53" height="310" fill="#000000" opacity="0.55"/>
<rect x="320" y="670" width="41" height="230" fill="#000000" opacity="0.55"/>
<rect x="365" y="625" width="83" height="275" fill="#000000" opacity="0.55"/>
<rect x="450" y="567" width="57" height="333" fill="#000000" opacity="0.55"/>
<rect x="511" y="577" width="45" height="323" fill="#000000" opacity="0.55"/>
<rect x="562" y="590" width="68" height="310" fill="#000000" opacity="0.55"/>
<rect x="638" y="577" width="48" height="323" fill="#000000" opacity="0.55"/>
<rect x="692" y="563" width="62" height="337" fill="#000000" opacity="0.55"/>
<rect x="759" y="587" width="71" height="313" fill="#000000" opacity="0.55"/>
<rect x="840" y="671" width="76" height="229" fill="#000000" opacity="0.55"/>
<rect x="923" y="617" width="67" height="283" fill="#000000" opacity="0.55"/>
<rect x="997" y="750" width="81" height="150" fill="#000000" opacity="0.55"/>
<rect x="1085" y="576" width="78" height="324" fill="#000000" opacity="0.55"/>
<rect x="1169" y="666" width="84" height="234" fill="#000000" opacity="0.55"/>
<rect x="1263" y="589" width="79" height="311" fill="#000000" opacity="0.55"/>
<rect x="1346" y="607" width="68" height="293" fill="#000000" opacity="0.55"/>
<rect x="1423" y="735" width="74" height="165" fill="#000000" opacity="0.55"/>
<rect x="1503" y="735" width="52" height="165" fill="#000000" opacity="0.55"/>
<rect x="1565" y="716" width="62" height="184" fill="#000000" opacity="0.55"/>
  <rect width="1600" height="900" fill="none"/>
</svg>